HIERARCHY
ROOT Root
{
	OFFSET 0.00 0.00 0.00
	CHANNELS 6 Xposition Yposition Zposition Xrotation Yrotation Zrotation
	JOINT L_Femur
	{
		OFFSET 4.75421 0.00000 0.00000
		CHANNELS 3 Xrotation Yrotation Zrotation
		JOINT L_Tibia
		{
			OFFSET 0.00000 -15.64471 0.00000
			CHANNELS 3 Xrotation Yrotation Zrotation
			JOINT L_Foot
			{
				OFFSET 0.00000 -16.58293 0.00000
				CHANNELS 3 Xrotation Yrotation Zrotation
				JOINT L_Toe
				{
					OFFSET 0.00000 -1.87793 7.00854
					CHANNELS 3 Xrotation Yrotation Zrotation
					End Site
					{
						OFFSET 0.00000 0.00000 2.95275
					}
				}
			}
			JOINT L_Cal
			{
				OFFSET 0.00000 -18.11020 0.00000
				CHANNELS 3 Xrotation Yrotation Zrotation
				JOINT L_Cal_End
				{
					OFFSET 0.00000 -2.04572 -1.18110
					CHANNELS 3 Xrotation Yrotation Zrotation
				}
			}
		}
	}
	JOINT R_Femur
	{
		OFFSET -4.75421 0.00000 0.00000
		CHANNELS 3 Xrotation Yrotation Zrotation
		JOINT R_Tibia
		{
			OFFSET 0.00000 -15.64471 0.00000
			CHANNELS 3 Xrotation Yrotation Zrotation
			JOINT R_Foot
			{
				OFFSET 0.00000 -16.58293 0.00000
				CHANNELS 3 Xrotation Yrotation Zrotation
				JOINT R_Toe
				{
					OFFSET 0.00000 -1.87793 7.00854
					CHANNELS 3 Xrotation Yrotation Zrotation
					End Site
					{
						OFFSET 0.00000 0.00000 2.95275
					}
				}
			}
			JOINT R_Cal
			{
				OFFSET 0.00000 -18.11020 0.00000
				CHANNELS 3 Xrotation Yrotation Zrotation
				JOINT R_Cal_End
				{
					OFFSET 0.00000 -2.04572 -1.18110
					CHANNELS 3 Xrotation Yrotation Zrotation
				}
			}
		}
	}
	JOINT LowerBack
	{
		OFFSET 0.00000 0.03937 0.00000
		CHANNELS 3 Xrotation Yrotation Zrotation
		JOINT Thorax
		{
			OFFSET 0.00000 14.39695 0.00000
			CHANNELS 3 Xrotation Yrotation Zrotation
			JOINT Neck
			{
				OFFSET 0.00000 8.55300 0.00000
				CHANNELS 3 Xrotation Yrotation Zrotation
				JOINT Head
				{
					OFFSET 0.00000 5.35956 0.00000
					CHANNELS 3 Xrotation Yrotation Zrotation
					End Site
					{
						OFFSET 0.00000 4.52755 0.00000
					}
				}
			}
			JOINT L_Collar
			{
				OFFSET 0.00000 8.55300 0.00000
				CHANNELS 3 Xrotation Yrotation Zrotation
				JOINT L_Humerus
				{
					OFFSET 7.75316 -0.00003 0.00000
					CHANNELS 3 Xrotation Yrotation Zrotation
					JOINT L_Elbow
					{
						OFFSET 11.00312 -0.00004 0.00000
						CHANNELS 3 Xrotation Yrotation Zrotation
						JOINT L_Wrist
						{
							OFFSET 10.82675 -0.00004 0.00000
							CHANNELS 3 Xrotation Yrotation Zrotation
						}
					}
				}
			}
			JOINT R_Collar
			{
				OFFSET 0.00000 8.55300 0.00000
				CHANNELS 3 Xrotation Yrotation Zrotation
				JOINT R_Humerus
				{
					OFFSET -7.75316 -0.00003 0.00000
					CHANNELS 3 Xrotation Yrotation Zrotation
					JOINT R_Elbow
					{
						OFFSET -11.00312 -0.00004 0.00000
						CHANNELS 3 Xrotation Yrotation Zrotation
						JOINT R_Wrist
						{
							OFFSET -10.82675 -0.00004 0.00000
							CHANNELS 3 Xrotation Yrotation Zrotation
						}
					}
				}
			}
		}
	}
}
MOTION
Frames: 6
Frame Time: 0.008333
 96.9988 5.3409 33.8483 -168.5122 -45.7468 109.9900 -43.0349 16.4200 -2.2662 10.8605 0.0000 -0.0000 9.0010 15.7719 166.3073 16.4333 0.0000 0.0000 93.7913 -2.9789 -2.6286 0.0000 0.0000 0.0000 -53.0869 13.8574 -1.8865 23.2352 0.0000 -0.0000 3.8327 -9.5883 -165.8908 39.0961 -0.0000 -0.0000 97.9136 1.4186 13.2919 0.0000 -0.0000 0.0000 -49.1630 5.1228 0.7673 16.5107 -10.3333 -16.4102 8.1675 26.2544 4.3130 -22.9171 39.2956 10.2072 32.2615 0.2864 -10.1641 -23.7090 -21.3558 -48.9783 -0.0002 -46.0174 -0.0001 -0.0000 0.0000 -0.0000 13.5212 28.0342 19.6253 -13.7000 17.5499 49.6290 -0.0003 52.3071 0.0001 -0.0000 0.0000 -0.0000
 97.0056 5.3554 33.8448 -168.4674 -45.6314 109.9884 -43.1685 16.3464 -2.1625 10.9428 0.0000 -0.0000 9.1952 15.9528 167.2958 30.4192 0.0000 0.0000 96.1938 -3.2909 -2.9674 0.0000 -0.0000 -0.0000 -53.1906 14.1017 -1.7406 23.2881 0.0000 -0.0000 4.3128 -9.9927 -167.0260 51.3100 -0.0000 0.0000 100.7402 1.0042 13.0727 0.0000 0.0000 0.0000 -49.3705 5.0000 0.7888 17.0010 -10.5690 -16.4714 9.2132 25.4371 6.0640 -22.6362 41.8035 4.8148 31.8679 0.9999 -10.3304 -24.0066 -21.4687 -49.2365 -0.0002 -46.2425 -0.0001 -0.0000 0.0000 -0.0000 14.2739 28.1848 19.2210 -14.5082 18.4036 49.4534 -0.0003 52.5172 0.0001 -0.0000 0.0000 -0.0000
 97.0058 5.3550 33.8481 -168.4908 -45.6382 109.9541 -43.1685 16.3464 -2.1625 10.9428 0.0000 0.0000 9.1952 15.9528 167.2958 30.4192 -0.0000 0.0000 96.1938 -3.2909 -2.9674 0.0000 0.0000 0.0000 -53.1906 14.1017 -1.7406 23.2881 0.0000 0.0000 4.3128 -9.9927 -167.0260 51.3100 -0.0000 -0.0000 100.7402 1.0042 13.0727 0.0000 -0.0000 -0.0000 -49.3705 5.0000 0.7888 17.0010 -10.5690 -16.4714 9.2132 25.4371 6.0640 -22.6362 41.8035 4.8148 31.8679 0.9999 -10.3304 -24.0066 -21.4687 -49.2365 -0.0002 -46.2425 -0.0001 -0.0000 0.0000 -0.0000 14.2739 28.1848 19.2210 -14.5082 18.4036 49.4534 -0.0003 52.5172 0.0001 -0.0000 0.0000 -0.0000
 97.0208 5.3450 33.8456 -168.5776 -45.4676 109.8589 -43.3501 16.3079 -2.1612 10.8825 -0.0000 0.0000 9.0815 16.0031 167.4101 31.5669 0.0000 0.0000 96.7332 -3.3723 -2.8910 0.0000 0.0000 0.0000 -53.3530 13.7863 -1.7848 23.1828 0.0000 0.0000 4.2030 -9.8308 -167.1139 51.9818 -0.0000 0.0000 101.0638 1.1220 12.3286 0.0000 -0.0000 0.0000 -49.3669 5.2066 0.9289 17.0977 -10.5592 -16.8366 9.2787 24.6284 7.4140 -21.9598 43.0111 1.8887 31.3689 1.4590 -10.2172 -23.4305 -22.3475 -49.0009 -0.0002 -46.2241 -0.0001 -0.0000 0.0000 -0.0000 16.1903 27.6633 18.8658 -16.4054 19.9132 49.3184 -0.0003 52.2915 0.0001 -0.0000 0.0000 -0.0000
 97.0197 5.3449 33.8441 -168.5738 -45.4687 109.8631 -43.3501 16.3079 -2.1612 10.8825 0.0000 -0.0000 9.0815 16.0031 167.4101 31.5669 0.0000 -0.0000 96.7332 -3.3723 -2.8910 0.0000 0.0000 -0.0000 -53.3530 13.7863 -1.7848 23.1828 -0.0000 -0.0000 4.2030 -9.8308 -167.1139 51.9818 -0.0000 -0.0000 101.0638 1.1220 12.3286 0.0000 -0.0000 0.0000 -49.3669 5.2066 0.9289 17.0977 -10.5592 -16.8366 9.2787 24.6284 7.4140 -21.9598 43.0111 1.8887 31.3689 1.4590 -10.2172 -23.4305 -22.3475 -49.0009 -0.0002 -46.2241 -0.0001 -0.0000 0.0000 -0.0000 16.1903 27.6633 18.8658 -16.4054 19.9132 49.3184 -0.0003 52.2915 0.0001 -0.0000 0.0000 -0.0000
 97.0188 5.3583 33.8431 -168.6183 -45.4617 109.8223 -43.3958 16.3099 -2.1343 10.9477 -0.0000 0.0000 9.0769 15.9143 167.4250 32.5913 -0.0000 0.0000 96.8318 -3.3524 -2.9256 0.0000 -0.0000 -0.0000 -53.3450 13.8604 -1.7641 23.1822 0.0000 -0.0000 4.1680 -9.9646 -167.2747 52.8064 -0.0000 -0.0000 101.3037 1.0363 12.6090 0.0000 -0.0000 -0.0000 -49.3770 5.1569 0.8732 17.1038 -10.5478 -16.8075 9.1927 24.7508 7.2363 -22.1162 42.9608 2.1021 31.3517 1.6475 -10.2558 -23.8372 -22.1469 -49.3004 -0.0002 -46.0814 -0.0001 -0.0000 0.0000 -0.0000 16.4789 27.5942 18.7247 -16.7820 20.1049 49.4331 -0.0003 52.3274 0.0001 -0.0000 0.0000 -0.0000
